<svg xmlns="http://www.w3.org/2000/svg" fill="none" width="24" height="24" viewBox="0 0 24 24">
    <g clip-path="url(#a)" filter="url(#b)">
        <path fill="url(#c)" d="M19.02.59a3.59 3.59 0 0 1 4.4 4.39L20.3 16.59a3.59 3.59 0 0 1-6 1.61L5.8 9.7a3.59 3.59 0 0 1 1.6-6L19.03.59Z"/>
        <path fill="url(#d)" d="M14.94 4.67a3.59 3.59 0 0 1 4.4 4.4l-3.12 11.6a3.59 3.59 0 0 1-6 1.61l-8.5-8.5a3.59 3.59 0 0 1 1.6-6l11.62-3.11Z"/>
    </g>
    <defs>
        <linearGradient id="c" x1="25.02" x2="5.06" y1="-1.02" y2="18.94" gradientUnits="userSpaceOnUse">
            <stop stop-color="#81FF18"/>
            <stop offset="1" stop-color="#87F823"/>
        </linearGradient>
        <linearGradient id="d" x1="20.94" x2=".98" y1="3.06" y2="23.02" gradientUnits="userSpaceOnUse">
            <stop stop-color="#0DB1F6"/>
            <stop offset="1" stop-color="#4536FB" stop-opacity="0"/>
            <stop offset="1" stop-color="#4536FB"/>
        </linearGradient>
        <clipPath id="a">
            <path fill="#fff" d="M0 0h24v24H0z"/>
        </clipPath>
        <filter id="b" width="24.71" height="24.71" x="-.36" y="0" color-interpolation-filters="sRGB" filterUnits="userSpaceOnUse">
            <feFlood flood-opacity="0" result="BackgroundImageFix"/>
            <feColorMatrix in="SourceAlpha" result="hardAlpha" values="0 0 0 0 0 0 0 0 0 0 0 0 0 0 0 0 0 0 127 0"/>
            <feOffset dy=".36"/>
            <feGaussianBlur stdDeviation=".18"/>
            <feComposite in2="hardAlpha" operator="out"/>
            <feColorMatrix values="0 0 0 0 0 0 0 0 0 0 0 0 0 0 0 0 0 0 0.25 0"/>
            <feBlend in2="BackgroundImageFix" result="effect1_dropShadow_1_9916"/>
            <feBlend in="SourceGraphic" in2="effect1_dropShadow_1_9916" result="shape"/>
        </filter>
    </defs>
</svg>