<svg width="128" height="128" viewBox="0 0 128 128" fill="none" xmlns="http://www.w3.org/2000/svg">
<g clip-path="url(#clip0_21_14)" filter="url(#filter0_d_21_14)">
<path d="M99.8649 12.1954C107.367 10.1853 114.231 17.0499 112.221 24.5517L94.6886 89.984C92.6785 97.4858 83.3013 99.9984 77.8097 94.5067L29.9098 46.6069C24.4182 41.1153 26.9308 31.7381 34.4325 29.728L99.8649 12.1954Z" fill="url(#paint0_linear_21_14)"/>
<path d="M83.1392 28.9211C90.641 26.911 97.5056 33.7756 95.4955 41.2773L77.9629 106.71C75.9529 114.211 66.5757 116.724 61.084 111.232L13.1842 63.3326C7.69254 57.8409 10.2051 48.4637 17.7069 46.4536L83.1392 28.9211Z" fill="url(#paint1_linear_21_14)"/>
</g>
<defs>
<filter id="filter0_d_21_14" x="-1" y="0" width="130" height="130" filterUnits="userSpaceOnUse" color-interpolation-filters="sRGB">
<feFlood flood-opacity="0" result="BackgroundImageFix"/>
<feColorMatrix in="SourceAlpha" type="matrix" values="0 0 0 0 0 0 0 0 0 0 0 0 0 0 0 0 0 0 127 0" result="hardAlpha"/>
<feOffset dy="1"/>
<feGaussianBlur stdDeviation="0.5"/>
<feComposite in2="hardAlpha" operator="out"/>
<feColorMatrix type="matrix" values="0 0 0 0 0 0 0 0 0 0 0 0 0 0 0 0 0 0 0.25 0"/>
<feBlend mode="normal" in2="BackgroundImageFix" result="effect1_dropShadow_21_14"/>
<feBlend mode="normal" in="SourceGraphic" in2="effect1_dropShadow_21_14" result="shape"/>
</filter>
<linearGradient id="paint0_linear_21_14" x1="116.744" y1="7.67273" x2="32.8984" y2="91.5182" gradientUnits="userSpaceOnUse">
<stop stop-color="#81FF18"/>
<stop offset="1" stop-color="#87F823"/>
</linearGradient>
<linearGradient id="paint1_linear_21_14" x1="100.018" y1="24.3984" x2="16.1727" y2="108.244" gradientUnits="userSpaceOnUse">
<stop stop-color="#0DB1F6"/>
<stop offset="1" stop-color="#4536FB" stop-opacity="0"/>
<stop offset="1" stop-color="#4536FB"/>
</linearGradient>
<clipPath id="clip0_21_14">
<rect width="128" height="128" fill="white"/>
</clipPath>
</defs>
</svg>
